<svg xmlns="http://www.w3.org/2000/svg" width="460.634" height="472.502" viewBox="0 0 460.634 472.502">
  <g id="Group_5" data-name="Group 5" transform="translate(27.032 -55.274)">
    <path id="Path_2" data-name="Path 2" d="M-36.281,125.774l-29.251,29.251V356.764l29.251,29.251-29.251,29.251v52.76l29.251,29.251H264.852L294.1,468.026v-52.76l-29.251-29.251L294.1,356.764V155.025H153.59l-29.251-29.251Z" transform="translate(89 -20)" fill="none" stroke="red" stroke-width="5"/>
    <path id="Path_1" data-name="Path 1" d="M-36.281,125.774l-29.251,29.251V356.764l29.251,29.251-29.251,29.251v52.76l29.251,29.251H264.852L294.1,468.026v-52.76l-29.251-29.251L294.1,356.764V155.025H153.59l-29.251-29.251Z" transform="translate(89 -20)" fill="none" stroke="red" stroke-width="1"/>
    <path id="Path_3" data-name="Path 3" d="M-36.281,125.774l-29.251,29.251V356.764l29.251,29.251-29.251,29.251v52.76l29.251,29.251H264.852L294.1,468.026v-52.76l-29.251-29.251L294.1,356.764V155.025H153.59l-29.251-29.251Z" transform="translate(94 -15)" fill="none" stroke="#fff" stroke-width="1"/>
    <path id="Path_4" data-name="Path 4" d="M-36.281,125.774l-29.251,29.251V356.764l29.251,29.251-29.251,29.251v52.76l29.251,29.251H264.852L294.1,468.026v-52.76l-29.251-29.251L294.1,356.764V155.025H153.59l-29.251-29.251Z" transform="translate(94 -15)" fill="none" stroke="#fff" stroke-width="3" opacity="0.53"/>
  </g>
</svg>
