<svg xmlns="http://www.w3.org/2000/svg" width="418.537" height="74.508" viewBox="0 0 418.537 74.508">
  <g id="Group_14" data-name="Group 14" transform="translate(-4.315 -282)">
    <path id="Union_12" data-name="Union 12" d="M-734.75,19-742,6.5l.114-.2-.106.135H-757L-747.172-6h38.18l9.827,12.439h-13.87L-713,6.5-720.25,19ZM-548.172,6.439-558-6h15.008l9.828,12.439Zm-28,0L-586-6h15.008l9.828,12.439Zm-27,0L-613-6h15.008l9.828,12.439Zm-28,0L-641-6h15.008l9.828,12.439Zm-27,0L-668-6h15.008l9.827,12.439Zm-28,0L-696-6h15.008l9.827,12.439Zm-98.827,0L-775.172-6h15.008l-9.828,12.439Zm-28,0L-803.172-6h15.007l-9.828,12.439Zm-27,0L-830.173-6h15.008l-9.827,12.439Zm-28,0L-858.173-6h15.008l-9.827,12.439Zm-27,0L-885.173-6h15.008l-9.827,12.439Zm-28,0L-913.172-6h15.008l-9.828,12.439Z" transform="translate(941 333)" fill="#ff0909"/>
    <path id="Path_230" data-name="Path 230" d="M941,333l-11.758,16.7h189.615l6.068,10.3" transform="translate(-923 -4)" fill="none" stroke="#fff" stroke-width="2"/>
    <path id="Path_231" data-name="Path 231" d="M1113.167,333l11.758,16.7H935.31L929.242,360" transform="translate(-704 -4)" fill="none" stroke="#fff" stroke-width="2"/>
    <path id="Path_232" data-name="Path 232" d="M19,13H362l21,35H0Z" transform="translate(21 269)" fill="#fff" opacity="0.33"/>
  </g>
</svg>
